# MagicaVoxel @ Ephtracy

# group
o 

# material
mtllib cubito_hielo_lento.mtl
usemtl palette

# normals
vn -1 0 0
vn 1 0 0
vn 0 0 1
vn 0 0 -1
vn 0 -1 0
vn 0 1 0

# texcoords
vt 0.197266 0.5
vt 0.337891 0.5
vt 0.466797 0.5
vt 0.556641 0.5
vt 0.580078 0.5

# verts
v -2 3 2
v -2 3 1.8
v -2 3 1.1
v -2 3 0.9
v -2 3 0.7
v -2 3 -0.6
v -2 3 -0.9
v -2 3 -1.3
v -2 3 -1.6
v -2 3 -1.8
v -2 3 -2
v -2 3.1 1.1
v -2 3.1 1
v -2 3.1 0.9
v -2 3.1 0.8
v -2 3.1 0.7
v -2 3.1 -0.9
v -2 3.1 -1.1
v -2 3.1 -1.2
v -2 3.1 -1.3
v -2 3.1 -1.4
v -2 3.2 1
v -2 3.2 0.8
v -2 3.2 -0.6
v -2 3.2 -0.8
v -2 3.2 -1.1
v -2 3.2 -1.2
v -2 3.3 -0.8
v -2 3.3 -1
v -2 3.3 -1.3
v -2 3.3 -1.4
v -2 3.3 -1.5
v -2 3.3 -1.6
v -2 3.4 -1
v -2 3.4 -1.1
v -2 3.4 -1.3
v -2 3.4 -1.4
v -2 3.4 -1.5
v -2 3.5 -1.1
v -2 3.5 -1.4
v -2 3.8 1.8
v -2 3.8 -1.8
v -2 4 2
v -2 4 -2
v 1.8 3.8 1.8
v 1.8 3.8 -1.8
v 1.8 3.9 1.8
v 1.8 3.9 -1.8
v 1.8 4 1.8
v 1.8 4 -1.8
v -1.8 3.8 1.8
v -1.8 3.8 -1.8
v -1.8 3.9 1.8
v -1.8 3.9 -1.8
v -1.8 4 1.8
v -1.8 4 -1.8
v 2 3 2
v 2 3 1.8
v 2 3 1.6
v 2 3 1.3
v 2 3 0.9
v 2 3 0.6
v 2 3 -0.7
v 2 3 -0.9
v 2 3 -1.1
v 2 3 -1.8
v 2 3 -2
v 2 3.1 1.4
v 2 3.1 1.3
v 2 3.1 1.2
v 2 3.1 1.1
v 2 3.1 0.9
v 2 3.1 -0.7
v 2 3.1 -0.8
v 2 3.1 -0.9
v 2 3.1 -1
v 2 3.1 -1.1
v 2 3.2 1.2
v 2 3.2 1.1
v 2 3.2 0.8
v 2 3.2 0.6
v 2 3.2 -0.8
v 2 3.2 -1
v 2 3.3 1.6
v 2 3.3 1.5
v 2 3.3 1.4
v 2 3.3 1.3
v 2 3.3 1
v 2 3.3 0.8
v 2 3.4 1.5
v 2 3.4 1.4
v 2 3.4 1.3
v 2 3.4 1.1
v 2 3.4 1
v 2 3.5 1.4
v 2 3.5 1.1
v 2 3.8 1.8
v 2 3.8 -1.8
v 2 4 2
v 2 4 -2
v -2 3 2
v -2 4 2
v -1.8 3 2
v -1.8 3.8 2
v -1.6 3 2
v -1.6 3.3 2
v -1.4 3.2 2
v -1.4 3.3 2
v -1.4 3.4 2
v -1.3 3.1 2
v -1.3 3.2 2
v -1.2 3.3 2
v -1.2 3.4 2
v -1.1 3 2
v -1.1 3.1 2
v -1.1 3.2 2
v -1.1 3.3 2
v -1 3.1 2
v -1 3.2 2
v -1 3.4 2
v -0.9 3 2
v -0.9 3.1 2
v -0.8 3 2
v -0.8 3.1 2
v -0.6 3 2
v -0.6 3.1 2
v 2.38419e-07 3 2
v 2.38419e-07 3.1 2
v 0.1 3.1 2
v 0.1 3.2 2
v 0.2 3.2 2
v 0.2 3.4 2
v 0.3 3.3 2
v 0.3 3.4 2
v 0.4 3.4 2
v 0.4 3.5 2
v 0.6 3.2 2
v 0.6 3.3 2
v 0.8 3.1 2
v 0.8 3.2 2
v 0.8 3.4 2
v 0.8 3.5 2
v 0.9 3 2
v 0.9 3.1 2
v 0.9 3.3 2
v 0.9 3.4 2
v 1 3 2
v 1 3.1 2
v 1 3.2 2
v 1 3.3 2
v 1 3.4 2
v 1 3.5 2
v 1.1 3.1 2
v 1.1 3.2 2
v 1.1 3.4 2
v 1.8 3 2
v 1.8 3.8 2
v 2 3 2
v 2 4 2
v -1.8 3.8 -1.8
v -1.8 3.9 -1.8
v -1.8 4 -1.8
v 1.8 3.8 -1.8
v 1.8 3.9 -1.8
v 1.8 4 -1.8
v -1.8 3.8 1.8
v -1.8 3.9 1.8
v -1.8 4 1.8
v 1.8 3.8 1.8
v 1.8 3.9 1.8
v 1.8 4 1.8
v -2 3 -2
v -2 4 -2
v -1.8 3 -2
v -1.8 3.8 -2
v -1.1 3 -2
v -1.1 3.1 -2
v -1 3.1 -2
v -1 3.2 -2
v -0.9 3 -2
v -0.9 3.1 -2
v -0.8 3.1 -2
v -0.8 3.2 -2
v -0.7 3 -2
v -0.7 3.1 -2
v 0.6 3 -2
v 0.6 3.2 -2
v 0.8 3.2 -2
v 0.8 3.3 -2
v 0.9 3 -2
v 0.9 3.1 -2
v 1 3.3 -2
v 1 3.4 -2
v 1.1 3.1 -2
v 1.1 3.2 -2
v 1.1 3.4 -2
v 1.1 3.5 -2
v 1.2 3.1 -2
v 1.2 3.2 -2
v 1.3 3 -2
v 1.3 3.1 -2
v 1.3 3.3 -2
v 1.3 3.4 -2
v 1.4 3.1 -2
v 1.4 3.3 -2
v 1.4 3.4 -2
v 1.4 3.5 -2
v 1.5 3.3 -2
v 1.5 3.4 -2
v 1.6 3 -2
v 1.6 3.3 -2
v 1.8 3 -2
v 1.8 3.8 -2
v 2 3 -2
v 2 4 -2
v -2 3 2
v -1.8 3 2
v -1.6 3 2
v -1.1 3 2
v -0.9 3 2
v -0.8 3 2
v -0.6 3 2
v 2.38419e-07 3 2
v 0.9 3 2
v 1 3 2
v 1.8 3 2
v 2 3 2
v -1.9 3 1.9
v -1.8 3 1.9
v -1.6 3 1.9
v -1.1 3 1.9
v -0.9 3 1.9
v -0.8 3 1.9
v -0.6 3 1.9
v 2.38419e-07 3 1.9
v 0.9 3 1.9
v 1 3 1.9
v 1.8 3 1.9
v 1.9 3 1.9
v -2 3 1.8
v -1.9 3 1.8
v 1.9 3 1.8
v 2 3 1.8
v 1.9 3 1.6
v 2 3 1.6
v 1.9 3 1.3
v 2 3 1.3
v -2 3 1.1
v -1.9 3 1.1
v -2 3 0.9
v -1.9 3 0.9
v 1.9 3 0.9
v 2 3 0.9
v -2 3 0.7
v -1.9 3 0.7
v 1.9 3 0.6
v 2 3 0.6
v -2 3 -0.6
v -1.9 3 -0.6
v 1.9 3 -0.7
v 2 3 -0.7
v -2 3 -0.9
v -1.9 3 -0.9
v 1.9 3 -0.9
v 2 3 -0.9
v 1.9 3 -1.1
v 2 3 -1.1
v -2 3 -1.3
v -1.9 3 -1.3
v -2 3 -1.6
v -1.9 3 -1.6
v -2 3 -1.8
v -1.9 3 -1.8
v 1.9 3 -1.8
v 2 3 -1.8
v -1.9 3 -1.9
v -1.8 3 -1.9
v -1.1 3 -1.9
v -0.9 3 -1.9
v -0.7 3 -1.9
v 0.6 3 -1.9
v 0.9 3 -1.9
v 1.3 3 -1.9
v 1.6 3 -1.9
v 1.8 3 -1.9
v 1.9 3 -1.9
v -2 3 -2
v -1.8 3 -2
v -1.1 3 -2
v -0.9 3 -2
v -0.7 3 -2
v 0.6 3 -2
v 0.9 3 -2
v 1.3 3 -2
v 1.6 3 -2
v 1.8 3 -2
v 2 3 -2
v -1.8 3.8 1.8
v 1.8 3.8 1.8
v -1.8 3.8 -1.8
v 1.8 3.8 -1.8
v -2 4 2
v 2 4 2
v -1.8 4 1.8
v 1.8 4 1.8
v -1.8 4 -1.8
v 1.8 4 -1.8
v -2 4 -2
v 2 4 -2

# faces
f 12/5/1 3/5/1 2/5/1
f 12/2/1 4/2/1 3/2/1
f 13/2/1 4/2/1 12/2/1
f 14/3/1 5/3/1 4/3/1
f 14/2/1 4/2/1 13/2/1
f 15/3/1 5/3/1 14/3/1
f 16/5/1 6/5/1 5/5/1
f 16/3/1 5/3/1 15/3/1
f 17/3/1 7/3/1 6/3/1
f 17/4/1 8/4/1 7/4/1
f 18/4/1 8/4/1 17/4/1
f 19/4/1 8/4/1 18/4/1
f 20/3/1 9/3/1 8/3/1
f 20/4/1 8/4/1 19/4/1
f 21/3/1 9/3/1 20/3/1
f 22/5/1 13/5/1 12/5/1
f 22/3/1 15/3/1 14/3/1
f 22/3/1 14/3/1 13/3/1
f 23/5/1 16/5/1 15/5/1
f 23/3/1 15/3/1 22/3/1
f 24/5/1 6/5/1 16/5/1
f 24/5/1 16/5/1 23/5/1
f 24/3/1 17/3/1 6/3/1
f 24/3/1 18/3/1 17/3/1
f 25/3/1 18/3/1 24/3/1
f 26/4/1 19/4/1 18/4/1
f 26/3/1 18/3/1 25/3/1
f 27/2/1 21/2/1 20/2/1
f 27/4/1 19/4/1 26/4/1
f 27/2/1 20/2/1 19/2/1
f 28/3/1 26/3/1 25/3/1
f 28/5/1 23/5/1 22/5/1
f 28/5/1 25/5/1 24/5/1
f 28/5/1 24/5/1 23/5/1
f 29/3/1 26/3/1 28/3/1
f 30/2/1 21/2/1 27/2/1
f 30/2/1 27/2/1 26/2/1
f 31/3/1 9/3/1 21/3/1
f 31/2/1 21/2/1 30/2/1
f 32/3/1 9/3/1 31/3/1
f 33/5/1 10/5/1 9/5/1
f 33/3/1 9/3/1 32/3/1
f 34/3/1 26/3/1 29/3/1
f 34/5/1 29/5/1 28/5/1
f 35/2/1 30/2/1 26/2/1
f 35/3/1 26/3/1 34/3/1
f 36/3/1 32/3/1 31/3/1
f 36/2/1 30/2/1 35/2/1
f 36/3/1 31/3/1 30/3/1
f 37/3/1 32/3/1 36/3/1
f 38/5/1 33/5/1 32/5/1
f 38/3/1 32/3/1 37/3/1
f 39/5/1 35/5/1 34/5/1
f 39/3/1 37/3/1 36/3/1
f 39/3/1 36/3/1 35/3/1
f 40/5/1 38/5/1 37/5/1
f 40/3/1 37/3/1 39/3/1
f 41/4/1 2/4/1 1/4/1
f 41/5/1 34/5/1 28/5/1
f 41/5/1 40/5/1 39/5/1
f 41/5/1 28/5/1 22/5/1
f 41/5/1 12/5/1 2/5/1
f 41/5/1 22/5/1 12/5/1
f 41/5/1 39/5/1 34/5/1
f 42/5/1 38/5/1 40/5/1
f 42/5/1 40/5/1 41/5/1
f 42/4/1 11/4/1 10/4/1
f 42/5/1 10/5/1 33/5/1
f 42/5/1 33/5/1 38/5/1
f 43/4/1 41/4/1 1/4/1
f 43/4/1 42/4/1 41/4/1
f 44/4/1 11/4/1 42/4/1
f 44/4/1 42/4/1 43/4/1
f 47/5/1 46/5/1 45/5/1
f 48/5/1 46/5/1 47/5/1
f 49/4/1 48/4/1 47/4/1
f 50/4/1 48/4/1 49/4/1
f 51/5/2 52/5/2 53/5/2
f 53/5/2 52/5/2 54/5/2
f 53/4/2 54/4/2 55/4/2
f 55/4/2 54/4/2 56/4/2
f 59/3/2 60/3/2 68/3/2
f 60/4/2 61/4/2 69/4/2
f 68/3/2 60/3/2 69/3/2
f 69/4/2 61/4/2 70/4/2
f 70/4/2 61/4/2 71/4/2
f 61/3/2 62/3/2 72/3/2
f 71/4/2 61/4/2 72/4/2
f 62/5/2 63/5/2 73/5/2
f 63/3/2 64/3/2 73/3/2
f 73/3/2 64/3/2 74/3/2
f 64/2/2 65/2/2 75/2/2
f 74/3/2 64/3/2 75/3/2
f 75/2/2 65/2/2 76/2/2
f 65/5/2 66/5/2 77/5/2
f 76/2/2 65/2/2 77/2/2
f 70/4/2 71/4/2 78/4/2
f 68/2/2 69/2/2 78/2/2
f 69/2/2 70/2/2 78/2/2
f 71/3/2 72/3/2 79/3/2
f 78/4/2 71/4/2 79/4/2
f 72/3/2 62/3/2 80/3/2
f 79/3/2 72/3/2 80/3/2
f 73/5/2 74/5/2 81/5/2
f 80/3/2 62/3/2 81/3/2
f 62/5/2 73/5/2 81/5/2
f 75/3/2 76/3/2 82/3/2
f 81/5/2 74/5/2 82/5/2
f 74/3/2 75/3/2 82/3/2
f 76/5/2 77/5/2 83/5/2
f 82/3/2 76/3/2 83/3/2
f 58/5/2 59/5/2 84/5/2
f 59/3/2 68/3/2 84/3/2
f 84/3/2 68/3/2 85/3/2
f 78/2/2 79/2/2 86/2/2
f 85/3/2 68/3/2 86/3/2
f 68/2/2 78/2/2 86/2/2
f 86/2/2 79/2/2 87/2/2
f 79/3/2 80/3/2 88/3/2
f 82/5/2 83/5/2 89/5/2
f 88/3/2 80/3/2 89/3/2
f 80/5/2 81/5/2 89/5/2
f 81/5/2 82/5/2 89/5/2
f 84/5/2 85/5/2 90/5/2
f 86/3/2 87/3/2 90/3/2
f 85/3/2 86/3/2 90/3/2
f 90/3/2 87/3/2 91/3/2
f 87/2/2 79/2/2 92/2/2
f 91/3/2 87/3/2 92/3/2
f 79/3/2 88/3/2 93/3/2
f 92/2/2 79/2/2 93/2/2
f 88/5/2 89/5/2 94/5/2
f 93/3/2 88/3/2 94/3/2
f 91/3/2 92/3/2 95/3/2
f 90/5/2 91/5/2 95/5/2
f 92/3/2 93/3/2 95/3/2
f 93/5/2 94/5/2 96/5/2
f 95/3/2 93/3/2 96/3/2
f 57/4/2 58/4/2 97/4/2
f 58/5/2 84/5/2 97/5/2
f 95/5/2 96/5/2 97/5/2
f 84/5/2 90/5/2 97/5/2
f 90/5/2 95/5/2 97/5/2
f 96/5/2 94/5/2 98/5/2
f 97/5/2 96/5/2 98/5/2
f 83/5/2 77/5/2 98/5/2
f 89/5/2 83/5/2 98/5/2
f 77/5/2 66/5/2 98/5/2
f 94/5/2 89/5/2 98/5/2
f 66/4/2 67/4/2 98/4/2
f 57/4/2 97/4/2 99/4/2
f 97/4/2 98/4/2 99/4/2
f 98/4/2 67/4/2 100/4/2
f 99/4/2 98/4/2 100/4/2
f 103/4/3 102/4/3 101/4/3
f 104/4/3 102/4/3 103/4/3
f 105/5/3 104/5/3 103/5/3
f 106/5/3 104/5/3 105/5/3
f 107/4/3 106/4/3 105/4/3
f 108/5/3 104/5/3 106/5/3
f 108/4/3 106/4/3 107/4/3
f 109/5/3 104/5/3 108/5/3
f 110/4/3 107/4/3 105/4/3
f 111/3/3 108/3/3 107/3/3
f 111/4/3 107/4/3 110/4/3
f 111/3/3 109/3/3 108/3/3
f 112/3/3 111/3/3 110/3/3
f 112/3/3 109/3/3 111/3/3
f 113/5/3 104/5/3 109/5/3
f 113/3/3 109/3/3 112/3/3
f 114/4/3 110/4/3 105/4/3
f 115/3/3 112/3/3 110/3/3
f 115/4/3 110/4/3 114/4/3
f 116/3/3 112/3/3 115/3/3
f 117/2/3 113/2/3 112/2/3
f 117/3/3 112/3/3 116/3/3
f 118/4/3 116/4/3 115/4/3
f 118/5/3 115/5/3 114/5/3
f 119/2/3 117/2/3 116/2/3
f 119/4/3 116/4/3 118/4/3
f 120/5/3 104/5/3 113/5/3
f 120/2/3 117/2/3 119/2/3
f 120/2/3 113/2/3 117/2/3
f 121/5/3 119/5/3 118/5/3
f 121/5/3 118/5/3 114/5/3
f 121/5/3 120/5/3 119/5/3
f 122/5/3 120/5/3 121/5/3
f 123/3/3 122/3/3 121/3/3
f 124/5/3 120/5/3 122/5/3
f 124/3/3 122/3/3 123/3/3
f 125/2/3 124/2/3 123/2/3
f 126/5/3 120/5/3 124/5/3
f 126/2/3 124/2/3 125/2/3
f 127/5/3 126/5/3 125/5/3
f 128/5/3 120/5/3 126/5/3
f 128/5/3 126/5/3 127/5/3
f 129/4/3 128/4/3 127/4/3
f 129/5/3 120/5/3 128/5/3
f 130/5/3 120/5/3 129/5/3
f 131/4/3 130/4/3 129/4/3
f 131/5/3 120/5/3 130/5/3
f 132/5/3 104/5/3 120/5/3
f 132/5/3 120/5/3 131/5/3
f 133/4/3 132/4/3 131/4/3
f 134/5/3 104/5/3 132/5/3
f 134/4/3 132/4/3 133/4/3
f 135/3/3 134/3/3 133/3/3
f 135/5/3 104/5/3 134/5/3
f 136/5/3 104/5/3 135/5/3
f 137/4/3 131/4/3 129/4/3
f 137/4/3 133/4/3 131/4/3
f 138/3/3 136/3/3 135/3/3
f 138/4/3 133/4/3 137/4/3
f 138/3/3 135/3/3 133/3/3
f 139/4/3 129/4/3 127/4/3
f 139/4/3 137/4/3 129/4/3
f 140/3/3 138/3/3 137/3/3
f 140/4/3 137/4/3 139/4/3
f 141/3/3 136/3/3 138/3/3
f 141/3/3 138/3/3 140/3/3
f 142/5/3 104/5/3 136/5/3
f 142/3/3 136/3/3 141/3/3
f 143/4/3 139/4/3 127/4/3
f 144/3/3 141/3/3 140/3/3
f 144/4/3 139/4/3 143/4/3
f 144/3/3 140/3/3 139/3/3
f 145/3/3 141/3/3 144/3/3
f 146/2/3 142/2/3 141/2/3
f 146/3/3 141/3/3 145/3/3
f 147/3/3 145/3/3 144/3/3
f 147/3/3 144/3/3 143/3/3
f 148/3/3 145/3/3 147/3/3
f 149/3/3 145/3/3 148/3/3
f 150/2/3 146/2/3 145/2/3
f 150/3/3 145/3/3 149/3/3
f 151/2/3 142/2/3 146/2/3
f 151/2/3 146/2/3 150/2/3
f 152/5/3 104/5/3 142/5/3
f 152/2/3 142/2/3 151/2/3
f 153/3/3 149/3/3 148/3/3
f 153/5/3 148/5/3 147/5/3
f 154/2/3 150/2/3 149/2/3
f 154/3/3 149/3/3 153/3/3
f 154/2/3 151/2/3 150/2/3
f 155/5/3 152/5/3 151/5/3
f 155/2/3 151/2/3 154/2/3
f 156/5/3 153/5/3 147/5/3
f 156/5/3 154/5/3 153/5/3
f 156/5/3 155/5/3 154/5/3
f 157/4/3 102/4/3 104/4/3
f 157/5/3 155/5/3 156/5/3
f 157/5/3 152/5/3 155/5/3
f 157/5/3 104/5/3 152/5/3
f 158/4/3 157/4/3 156/4/3
f 159/4/3 102/4/3 157/4/3
f 159/4/3 157/4/3 158/4/3
f 163/5/3 161/5/3 160/5/3
f 164/4/3 162/4/3 161/4/3
f 164/5/3 161/5/3 163/5/3
f 165/4/3 162/4/3 164/4/3
f 166/5/4 167/5/4 169/5/4
f 167/4/4 168/4/4 170/4/4
f 169/5/4 167/5/4 170/5/4
f 170/4/4 168/4/4 171/4/4
f 172/4/4 173/4/4 174/4/4
f 174/4/4 173/4/4 175/4/4
f 174/5/4 175/5/4 176/5/4
f 176/5/4 175/5/4 177/5/4
f 176/2/4 177/2/4 178/2/4
f 177/5/4 175/5/4 178/5/4
f 178/5/4 175/5/4 179/5/4
f 176/2/4 178/2/4 180/2/4
f 178/3/4 179/3/4 181/3/4
f 180/2/4 178/2/4 181/2/4
f 180/3/4 181/3/4 182/3/4
f 181/3/4 179/3/4 182/3/4
f 179/5/4 175/5/4 183/5/4
f 182/3/4 179/3/4 183/3/4
f 180/3/4 182/3/4 184/3/4
f 182/5/4 183/5/4 185/5/4
f 184/3/4 182/3/4 185/3/4
f 184/5/4 185/5/4 186/5/4
f 183/5/4 175/5/4 187/5/4
f 186/5/4 185/5/4 187/5/4
f 185/5/4 183/5/4 187/5/4
f 186/3/4 187/3/4 188/3/4
f 187/5/4 175/5/4 188/5/4
f 188/5/4 175/5/4 189/5/4
f 186/3/4 188/3/4 190/3/4
f 188/3/4 189/3/4 190/3/4
f 190/3/4 189/3/4 191/3/4
f 189/5/4 175/5/4 192/5/4
f 191/3/4 189/3/4 192/3/4
f 192/5/4 175/5/4 193/5/4
f 190/4/4 191/4/4 194/4/4
f 191/3/4 192/3/4 194/3/4
f 192/3/4 193/3/4 194/3/4
f 194/3/4 193/3/4 195/3/4
f 193/5/4 175/5/4 196/5/4
f 195/3/4 193/3/4 196/3/4
f 196/5/4 175/5/4 197/5/4
f 194/4/4 195/4/4 198/4/4
f 190/4/4 194/4/4 198/4/4
f 195/2/4 196/2/4 199/2/4
f 198/4/4 195/4/4 199/4/4
f 190/4/4 198/4/4 200/4/4
f 198/2/4 199/2/4 201/2/4
f 200/4/4 198/4/4 201/4/4
f 199/2/4 196/2/4 202/2/4
f 201/2/4 199/2/4 202/2/4
f 196/3/4 197/3/4 203/3/4
f 202/2/4 196/2/4 203/2/4
f 201/2/4 202/2/4 204/2/4
f 200/3/4 201/3/4 204/3/4
f 202/3/4 203/3/4 205/3/4
f 204/2/4 202/2/4 205/2/4
f 203/3/4 197/3/4 206/3/4
f 205/3/4 203/3/4 206/3/4
f 197/5/4 175/5/4 207/5/4
f 206/3/4 197/3/4 207/3/4
f 205/3/4 206/3/4 208/3/4
f 204/3/4 205/3/4 208/3/4
f 206/5/4 207/5/4 209/5/4
f 208/3/4 206/3/4 209/3/4
f 204/3/4 208/3/4 210/3/4
f 200/3/4 204/3/4 210/3/4
f 208/5/4 209/5/4 211/5/4
f 210/3/4 208/3/4 211/3/4
f 210/5/4 211/5/4 212/5/4
f 175/4/4 173/4/4 213/4/4
f 212/5/4 211/5/4 213/5/4
f 207/5/4 175/5/4 213/5/4
f 211/5/4 209/5/4 213/5/4
f 209/5/4 207/5/4 213/5/4
f 212/4/4 213/4/4 214/4/4
f 213/4/4 173/4/4 215/4/4
f 214/4/4 213/4/4 215/4/4
f 228/4/5 217/4/5 216/4/5
f 229/5/5 218/5/5 217/5/5
f 229/4/5 217/4/5 228/4/5
f 230/4/5 219/4/5 218/4/5
f 230/5/5 218/5/5 229/5/5
f 231/5/5 220/5/5 219/5/5
f 231/4/5 219/4/5 230/4/5
f 232/3/5 221/3/5 220/3/5
f 232/5/5 220/5/5 231/5/5
f 233/2/5 222/2/5 221/2/5
f 233/3/5 221/3/5 232/3/5
f 234/5/5 223/5/5 222/5/5
f 234/2/5 222/2/5 233/2/5
f 235/4/5 224/4/5 223/4/5
f 235/5/5 223/5/5 234/5/5
f 236/3/5 225/3/5 224/3/5
f 236/4/5 224/4/5 235/4/5
f 237/5/5 226/5/5 225/5/5
f 237/3/5 225/3/5 236/3/5
f 238/4/5 227/4/5 226/4/5
f 238/5/5 226/5/5 237/5/5
f 239/4/5 227/4/5 238/4/5
f 240/4/5 228/4/5 216/4/5
f 241/5/5 237/5/5 236/5/5
f 241/4/5 228/4/5 240/4/5
f 241/5/5 229/5/5 228/5/5
f 241/5/5 239/5/5 238/5/5
f 241/5/5 238/5/5 237/5/5
f 241/5/5 236/5/5 235/5/5
f 241/5/5 235/5/5 234/5/5
f 241/5/5 234/5/5 233/5/5
f 241/5/5 233/5/5 232/5/5
f 241/5/5 232/5/5 231/5/5
f 241/5/5 231/5/5 230/5/5
f 241/5/5 230/5/5 229/5/5
f 242/4/5 227/4/5 239/4/5
f 242/5/5 239/5/5 241/5/5
f 243/4/5 227/4/5 242/4/5
f 244/5/5 241/5/5 240/5/5
f 244/5/5 242/5/5 241/5/5
f 244/5/5 243/5/5 242/5/5
f 245/5/5 243/5/5 244/5/5
f 246/5/5 244/5/5 240/5/5
f 246/3/5 245/3/5 244/3/5
f 247/3/5 245/3/5 246/3/5
f 248/5/5 246/5/5 240/5/5
f 249/5/5 246/5/5 248/5/5
f 250/2/5 249/2/5 248/2/5
f 251/5/5 246/5/5 249/5/5
f 251/2/5 249/2/5 250/2/5
f 252/4/5 247/4/5 246/4/5
f 252/5/5 246/5/5 251/5/5
f 253/4/5 247/4/5 252/4/5
f 254/3/5 251/3/5 250/3/5
f 255/5/5 252/5/5 251/5/5
f 255/3/5 251/3/5 254/3/5
f 256/3/5 253/3/5 252/3/5
f 256/5/5 252/5/5 255/5/5
f 256/5/5 255/5/5 254/5/5
f 257/3/5 253/3/5 256/3/5
f 258/5/5 256/5/5 254/5/5
f 258/5/5 257/5/5 256/5/5
f 259/5/5 257/5/5 258/5/5
f 260/5/5 257/5/5 259/5/5
f 261/5/5 257/5/5 260/5/5
f 262/3/5 259/3/5 258/3/5
f 263/5/5 260/5/5 259/5/5
f 263/3/5 259/3/5 262/3/5
f 264/3/5 261/3/5 260/3/5
f 264/5/5 260/5/5 263/5/5
f 265/3/5 261/3/5 264/3/5
f 266/5/5 264/5/5 263/5/5
f 266/2/5 265/2/5 264/2/5
f 267/2/5 265/2/5 266/2/5
f 268/4/5 263/4/5 262/4/5
f 269/5/5 266/5/5 263/5/5
f 269/4/5 263/4/5 268/4/5
f 269/5/5 267/5/5 266/5/5
f 270/3/5 269/3/5 268/3/5
f 271/5/5 267/5/5 269/5/5
f 271/3/5 269/3/5 270/3/5
f 272/5/5 271/5/5 270/5/5
f 273/5/5 267/5/5 271/5/5
f 273/5/5 271/5/5 272/5/5
f 274/5/5 267/5/5 273/5/5
f 275/5/5 267/5/5 274/5/5
f 276/4/5 273/4/5 272/4/5
f 276/5/5 274/5/5 273/5/5
f 277/5/5 274/5/5 276/5/5
f 278/5/5 274/5/5 277/5/5
f 279/5/5 274/5/5 278/5/5
f 280/5/5 274/5/5 279/5/5
f 281/5/5 274/5/5 280/5/5
f 282/5/5 274/5/5 281/5/5
f 283/5/5 274/5/5 282/5/5
f 284/5/5 274/5/5 283/5/5
f 285/5/5 274/5/5 284/5/5
f 286/4/5 275/4/5 274/4/5
f 286/5/5 274/5/5 285/5/5
f 287/4/5 276/4/5 272/4/5
f 287/4/5 277/4/5 276/4/5
f 288/5/5 278/5/5 277/5/5
f 288/4/5 277/4/5 287/4/5
f 289/2/5 279/2/5 278/2/5
f 289/5/5 278/5/5 288/5/5
f 290/3/5 280/3/5 279/3/5
f 290/2/5 279/2/5 289/2/5
f 291/5/5 281/5/5 280/5/5
f 291/3/5 280/3/5 290/3/5
f 292/3/5 282/3/5 281/3/5
f 292/5/5 281/5/5 291/5/5
f 293/4/5 283/4/5 282/4/5
f 293/3/5 282/3/5 292/3/5
f 294/3/5 284/3/5 283/3/5
f 294/4/5 283/4/5 293/4/5
f 295/5/5 285/5/5 284/5/5
f 295/3/5 284/3/5 294/3/5
f 296/4/5 286/4/5 285/4/5
f 296/5/5 285/5/5 295/5/5
f 297/4/5 275/4/5 286/4/5
f 297/4/5 286/4/5 296/4/5
f 298/1/6 299/1/6 300/1/6
f 300/1/6 299/1/6 301/1/6
f 302/4/6 303/4/6 304/4/6
f 304/4/6 303/4/6 305/4/6
f 302/4/6 304/4/6 306/4/6
f 305/4/6 303/4/6 307/4/6
f 302/4/6 306/4/6 308/4/6
f 306/4/6 307/4/6 308/4/6
f 307/4/6 303/4/6 309/4/6
f 308/4/6 307/4/6 309/4/6
